# xmcd
#
# Track frame offsets: 
#        150
#        9420
#        22422
#        37410
#        47597
#        61160
#        76547
#        87100
#        97610
#        113242
#        132787
#        147872
#        160927
#        171582
#
# Disc length: 2452 seconds
#
# Revision: 1
# Processed by: cddbd v1.5.2PL0 Copyright (c) Steve Scherf et al.
# Submitted via: ExactAudioCopy v0.99pb5
#
DISCID=ad09920e
DTITLE=Various Artist - Have A Cuppa 'Jo
DYEAR=2005
DGENRE=Bluegrass
TTITLE0=Jim Mills - Little Birdie
TTITLE1=Jason Davis - Bully Of The Town
TTITLE2=Jason Burleson - Home Sweet Home
TTITLE3=Cia Cherryholmes - Cumberland Gap
TTITLE4=Joey Cox - Ponderosa
TTITLE5=Steve Dilling - Nashville Blues
TTITLE6=Greg Cahill - Margarita Breakdown
TTITLE7=Jason Davis - Buffalo Gals
TTITLE8=Joey Cox - New Camptown Races
TTITLE9=Jim Mills - John Henry
TTITLE10=Cia Cherryholmes - Dance Around Molly
TTITLE11=Greg Cahill - Snowflake Reel
TTITLE12=Jason Burleson - Lonesome Road Blues
TTITLE13=Steve Dilling - Shortnin' Bread
EXTD=
EXTT0=
EXTT1=
EXTT2=
EXTT3=
EXTT4=
EXTT5=
EXTT6=
EXTT7=
EXTT8=
EXTT9=
EXTT10=
EXTT11=
EXTT12=
EXTT13=
PLAYORDER=
